<svg width="184" height="191" viewBox="0 0 184 191" fill="none" xmlns="http://www.w3.org/2000/svg">
<circle cx="84" cy="88.9998" r="67.5652" fill="#282828"/>
<g filter="url(#filter0_d_217_3557)">
<path d="M46.7928 155.023C44.5654 158.975 45.951 164.026 50.1021 165.857C59.4444 169.977 69.4816 172.369 79.7247 172.891C92.7093 173.553 105.67 171.191 117.587 165.993C129.504 160.794 140.052 152.9 148.399 142.933C156.747 132.965 162.667 121.196 165.693 108.551C168.719 95.907 168.769 82.7328 165.838 70.0659C162.908 57.3991 157.077 45.5854 148.805 35.555C140.532 25.5246 130.045 17.5513 118.167 12.2629C108.798 8.09105 98.7652 5.67986 88.5698 5.12438C84.0396 4.87756 80.5176 8.75346 80.7143 13.2862C80.911 17.8189 84.7561 21.2819 89.2792 21.6363C96.9279 22.2358 104.439 24.1352 111.485 27.2721C121.039 31.5262 129.475 37.9399 136.129 46.0084C142.783 54.077 147.474 63.58 149.831 73.7693C152.189 83.9586 152.149 94.5561 149.714 104.727C147.28 114.899 142.518 124.366 135.803 132.384C129.088 140.402 120.604 146.752 111.018 150.934C101.432 155.115 91.0058 157.015 80.5609 156.483C72.8588 156.09 65.3014 154.383 58.21 151.455C54.0165 149.723 49.0203 151.07 46.7928 155.023Z" fill="#3BA0BB"/>
</g>
<path d="M45.0617 87.7039C45.0617 84.0823 45.6688 81.2561 46.883 79.2254C48.1182 77.1738 50.2326 76.1481 53.2262 76.1481C56.2199 76.1481 58.3238 77.1738 59.538 79.2254C60.7731 81.2561 61.3907 84.0823 61.3907 87.7039C61.3907 91.3675 60.7731 94.2355 59.538 96.3081C58.3238 98.3596 56.2199 99.3854 53.2262 99.3854C50.2326 99.3854 48.1182 98.3596 46.883 96.3081C45.6688 94.2355 45.0617 91.3675 45.0617 87.7039ZM57.8737 87.7039C57.8737 86.0082 57.7585 84.5742 57.5283 83.4019C57.3189 82.2295 56.8793 81.277 56.2094 80.5443C55.5395 79.7907 54.5451 79.4138 53.2262 79.4138C51.9073 79.4138 50.9129 79.7907 50.243 80.5443C49.5731 81.277 49.123 82.2295 48.8928 83.4019C48.6834 84.5742 48.5787 86.0082 48.5787 87.7039C48.5787 89.4624 48.6834 90.9383 48.8928 92.1316C49.1021 93.3249 49.5417 94.2879 50.2116 95.0206C50.9025 95.7533 51.9073 96.1196 53.2262 96.1196C54.5451 96.1196 55.5395 95.7533 56.2094 95.0206C56.9002 94.2879 57.3503 93.3249 57.5597 92.1316C57.769 90.9383 57.8737 89.4624 57.8737 87.7039ZM77.4881 81.8632C77.2578 80.9002 76.8391 80.178 76.232 79.6965C75.6249 79.215 74.7771 78.9742 73.6885 78.9742C72.0346 78.9742 70.7995 79.6127 69.983 80.8897C69.1666 82.1458 68.7374 84.2393 68.6956 87.1701C69.2399 86.249 70.0354 85.5372 71.0821 85.0348C72.1288 84.5324 73.2593 84.2811 74.4735 84.2811C75.8552 84.2811 77.0694 84.5847 78.1161 85.1918C79.1838 85.778 80.0107 86.6363 80.5969 87.7667C81.204 88.8972 81.5075 90.2475 81.5075 91.8176C81.5075 93.283 81.2144 94.5914 80.6283 95.7428C80.063 96.8942 79.2152 97.8049 78.0847 98.4748C76.9542 99.1238 75.5935 99.4482 74.0025 99.4482C71.8462 99.4482 70.1505 98.9772 68.9154 98.0352C67.7012 97.0722 66.8428 95.7219 66.3404 93.9843C65.8589 92.2467 65.6182 90.08 65.6182 87.4841C65.6182 79.8221 68.3187 75.991 73.7199 75.991C75.8133 75.991 77.4567 76.5563 78.65 77.6867C79.8642 78.8172 80.5759 80.2094 80.7853 81.8632H77.4881ZM73.6885 87.2957C72.4114 87.2957 71.3228 87.683 70.4227 88.4576C69.5434 89.2112 69.1038 90.3103 69.1038 91.7548C69.1038 93.1993 69.512 94.3507 70.3285 95.209C71.1658 96.0464 72.3277 96.4651 73.8141 96.4651C75.1329 96.4651 76.1692 96.0568 76.9228 95.2404C77.6974 94.4239 78.0847 93.3353 78.0847 91.9746C78.0847 90.551 77.7079 89.4206 76.9543 88.5832C76.2215 87.7249 75.1329 87.2957 73.6885 87.2957ZM87.2416 99.6681C86.5926 99.6681 86.0483 99.4482 85.6087 99.0086C85.169 98.569 84.9492 98.0247 84.9492 97.3757C84.9492 96.7267 85.169 96.1824 85.6087 95.7428C86.0483 95.3032 86.5926 95.0834 87.2416 95.0834C87.8696 95.0834 88.4034 95.3032 88.843 95.7428C89.2827 96.1824 89.5025 96.7267 89.5025 97.3757C89.5025 98.0247 89.2827 98.569 88.843 99.0086C88.4034 99.4482 87.8696 99.6681 87.2416 99.6681ZM87.2416 86.4793C86.5926 86.4793 86.0483 86.2595 85.6087 85.8198C85.169 85.3802 84.9492 84.8359 84.9492 84.1869C84.9492 83.538 85.169 82.9937 85.6087 82.554C86.0483 82.1144 86.5926 81.8946 87.2416 81.8946C87.8696 81.8946 88.4034 82.1144 88.843 82.554C89.2827 82.9937 89.5025 83.538 89.5025 84.1869C89.5025 84.8359 89.2827 85.3802 88.843 85.8198C88.4034 86.2595 87.8696 86.4793 87.2416 86.4793ZM92.9604 82.2086C93.086 80.2617 93.8292 78.7439 95.1899 77.6553C96.5716 76.5667 98.3301 76.0224 100.465 76.0224C101.931 76.0224 103.197 76.2841 104.265 76.8075C105.333 77.3309 106.139 78.0426 106.683 78.9428C107.227 79.843 107.499 80.8583 107.499 81.9888C107.499 83.2867 107.154 84.3963 106.463 85.3174C105.772 86.2385 104.945 86.8561 103.982 87.1701V87.2957C105.218 87.6725 106.181 88.3634 106.871 89.3682C107.562 90.3522 107.908 91.6187 107.908 93.1679C107.908 94.403 107.625 95.5021 107.06 96.4651C106.495 97.4281 105.657 98.1922 104.548 98.7574C103.438 99.3017 102.109 99.5738 100.56 99.5738C98.2987 99.5738 96.4355 98.9981 94.9701 97.8467C93.5256 96.6744 92.751 94.9996 92.6464 92.8224H96.1006C96.1843 93.932 96.6135 94.8426 97.388 95.5544C98.1626 96.2453 99.2093 96.5907 100.528 96.5907C101.805 96.5907 102.789 96.2453 103.48 95.5544C104.171 94.8426 104.516 93.932 104.516 92.8224C104.516 91.357 104.045 90.3208 103.103 89.7137C102.182 89.0856 100.759 88.7716 98.8325 88.7716H98.0161V85.8198H98.8639C100.56 85.7989 101.847 85.5163 102.726 84.972C103.627 84.4277 104.077 83.5694 104.077 82.397C104.077 81.3922 103.752 80.5967 103.103 80.0105C102.454 79.4034 101.533 79.0998 100.34 79.0998C99.1675 79.0998 98.2568 79.4034 97.6079 80.0105C96.9589 80.5967 96.5716 81.3294 96.446 82.2086H92.9604ZM126.176 79.3196L117.446 99.4482H113.835L122.659 79.6965H111.04V76.6505H126.176V79.3196Z" fill="white"/>
<path d="M66.7226 117.654L64.5465 125.337H63.6892L61.7549 118.786L59.7765 125.337L58.9413 125.348L56.8091 117.654H57.6334L59.3919 124.392L61.3592 117.654H62.2165L64.1288 124.392L65.8983 117.654H66.7226ZM70.5263 125.425C69.9621 125.425 69.4528 125.3 68.9986 125.051C68.5516 124.795 68.1962 124.436 67.9325 123.974C67.676 123.505 67.5478 122.959 67.5478 122.336C67.5478 121.714 67.6797 121.171 67.9435 120.71C68.2072 120.241 68.5663 119.882 69.0205 119.633C69.4748 119.376 69.9841 119.248 70.5482 119.248C71.1124 119.248 71.6217 119.376 72.076 119.633C72.5376 119.882 72.8966 120.241 73.153 120.71C73.4168 121.171 73.5487 121.714 73.5487 122.336C73.5487 122.952 73.4168 123.494 73.153 123.963C72.8893 124.432 72.5266 124.795 72.065 125.051C71.6034 125.3 71.0905 125.425 70.5263 125.425ZM70.5263 124.754C70.9219 124.754 71.2883 124.666 71.6253 124.491C71.9624 124.307 72.2335 124.036 72.4386 123.677C72.6511 123.311 72.7574 122.864 72.7574 122.336C72.7574 121.809 72.6548 121.366 72.4496 121.007C72.2445 120.64 71.9734 120.369 71.6363 120.193C71.2993 120.01 70.9329 119.919 70.5373 119.919C70.1416 119.919 69.7752 120.01 69.4382 120.193C69.1011 120.369 68.83 120.64 68.6249 121.007C68.4271 121.366 68.3281 121.809 68.3281 122.336C68.3281 122.864 68.4271 123.311 68.6249 123.677C68.83 124.036 69.0975 124.307 69.4272 124.491C69.7642 124.666 70.1306 124.754 70.5263 124.754ZM75.7205 120.402C75.889 120.028 76.1454 119.739 76.4898 119.534C76.8415 119.329 77.2702 119.226 77.7757 119.226V120.028H77.5669C77.01 120.028 76.5631 120.179 76.226 120.479C75.889 120.779 75.7205 121.281 75.7205 121.985V125.337H74.9511V119.336H75.7205V120.402ZM82.1753 125.337L79.7024 122.644V125.337H78.9331V117.204H79.7024V122.018L82.1204 119.336H83.1975L80.3509 122.325L83.2194 125.337H82.1753ZM91.7249 117.654V118.292H89.5927V125.337H88.8234V118.292H86.6802V117.654H91.7249ZM93.3244 118.204C93.1705 118.204 93.0387 118.149 92.9287 118.039C92.8188 117.929 92.7639 117.794 92.7639 117.632C92.7639 117.471 92.8188 117.339 92.9287 117.237C93.0387 117.127 93.1705 117.072 93.3244 117.072C93.4783 117.072 93.6102 117.127 93.7201 117.237C93.83 117.339 93.8849 117.471 93.8849 117.632C93.8849 117.794 93.83 117.929 93.7201 118.039C93.6102 118.149 93.4783 118.204 93.3244 118.204ZM93.7091 119.336V125.337H92.9397V119.336H93.7091ZM102.595 119.226C103.299 119.226 103.87 119.45 104.31 119.897C104.757 120.336 104.98 120.977 104.98 121.82V125.337H104.222V121.908C104.222 121.256 104.064 120.757 103.749 120.413C103.434 120.069 103.006 119.897 102.463 119.897C101.899 119.897 101.449 120.083 101.111 120.457C100.774 120.831 100.606 121.373 100.606 122.084V125.337H99.8475V121.908C99.8475 121.256 99.69 120.757 99.3749 120.413C99.0599 120.069 98.6276 119.897 98.078 119.897C97.5138 119.897 97.0632 120.083 96.7262 120.457C96.3891 120.831 96.2206 121.373 96.2206 122.084V125.337H95.4513V119.336H96.2206V120.369C96.4111 119.995 96.6822 119.713 97.0339 119.523C97.3856 119.325 97.7776 119.226 98.2099 119.226C98.7301 119.226 99.1844 119.351 99.5728 119.6C99.9684 119.849 100.254 120.215 100.43 120.699C100.591 120.223 100.866 119.86 101.254 119.611C101.65 119.354 102.097 119.226 102.595 119.226ZM112.118 122.029C112.118 122.293 112.111 122.494 112.096 122.633H107.117C107.139 123.087 107.249 123.476 107.447 123.798C107.645 124.121 107.905 124.366 108.227 124.535C108.55 124.696 108.902 124.776 109.283 124.776C109.781 124.776 110.198 124.655 110.536 124.414C110.88 124.172 111.107 123.846 111.217 123.436H112.03C111.884 124.022 111.569 124.502 111.085 124.875C110.609 125.242 110.008 125.425 109.283 125.425C108.718 125.425 108.213 125.3 107.766 125.051C107.319 124.795 106.967 124.436 106.711 123.974C106.462 123.505 106.337 122.959 106.337 122.336C106.337 121.714 106.462 121.168 106.711 120.699C106.96 120.23 107.308 119.871 107.755 119.622C108.202 119.373 108.711 119.248 109.283 119.248C109.854 119.248 110.352 119.373 110.777 119.622C111.21 119.871 111.539 120.208 111.766 120.633C112.001 121.051 112.118 121.516 112.118 122.029ZM111.338 122.007C111.345 121.56 111.254 121.179 111.063 120.864C110.88 120.549 110.627 120.311 110.305 120.149C109.982 119.988 109.631 119.908 109.25 119.908C108.678 119.908 108.191 120.091 107.788 120.457C107.385 120.823 107.161 121.34 107.117 122.007H111.338Z" fill="white"/>
<defs>
<filter id="filter0_d_217_3557" x="39.4562" y="0.403" width="144.245" height="189.868" filterUnits="userSpaceOnUse" color-interpolation-filters="sRGB">
<feFlood flood-opacity="0" result="BackgroundImageFix"/>
<feColorMatrix in="SourceAlpha" type="matrix" values="0 0 0 0 0 0 0 0 0 0 0 0 0 0 0 0 0 0 127 0" result="hardAlpha"/>
<feOffset dx="4.71028" dy="6.28037"/>
<feGaussianBlur stdDeviation="5.49533"/>
<feComposite in2="hardAlpha" operator="out"/>
<feColorMatrix type="matrix" values="0 0 0 0 0.227451 0 0 0 0 0.607843 0 0 0 0 0.709804 0 0 0 0.28 0"/>
<feBlend mode="normal" in2="BackgroundImageFix" result="effect1_dropShadow_217_3557"/>
<feBlend mode="normal" in="SourceGraphic" in2="effect1_dropShadow_217_3557" result="shape"/>
</filter>
</defs>
</svg>
